<svg xmlns="http://www.w3.org/2000/svg" viewBox="0 0 1200 675" width="1200" height="675" role="img" aria-label="Demo illustration">
  <defs>
    <linearGradient id="g" x1="0" y1="0" x2="1" y2="1"><stop offset="0" stop-color="#1f4d2b"/><stop offset="1" stop-color="#3f7d4a"/></linearGradient>
    <pattern id="k" width="60" height="60" patternUnits="userSpaceOnUse">
    <circle cx="30" cy="30" r="2.5" fill="#fff" opacity=".35"/>
    <path d="M30 12a18 18 0 0 1 18 18M30 48a18 18 0 0 1-18-18" fill="none" stroke="#fff" stroke-opacity=".18" stroke-width="2"/>
  </pattern>
  </defs>
  <rect width="1200" height="675" fill="url(#g)"/>
  <rect width="1200" height="675" fill="url(#k)"/>
  <circle cx="800" cy="338" r="250" fill="#e6d38a" opacity=".16"/>
  <circle cx="800" cy="338" r="170" fill="#e6d38a" opacity=".22"/>
  <path d="M0 560c200-60 400-60 600 0s400 60 600 0v115H0z" fill="#000" opacity=".12"/>
  <g transform="translate(680 218)"><path fill="none" stroke="#fff" stroke-width="10" stroke-linecap="round" stroke-linejoin="round" d="M120 220V110"/><path fill="none" stroke="#fff" stroke-width="10" stroke-linecap="round" stroke-linejoin="round" d="M120 150c-60 0-80-50-70-100 50 0 80 30 70 100zM120 130c50 0 70-40 60-80-40 0-65 25-60 80z"/></g>
  <g transform="translate(40 40)"><rect width="118" height="34" rx="17" fill="#000" fill-opacity=".28"/><text x="59" y="23" text-anchor="middle" font-family="Arial, Helvetica, sans-serif" font-size="15" font-weight="700" letter-spacing="3" fill="#fff">DEMO</text></g>
</svg>
